<?xml version="1.0" encoding="utf-8"?>
<!-- Generator: Adobe Illustrator 24.1.3, SVG Export Plug-In . SVG Version: 6.00 Build 0)  -->
<svg version="1.1" id="Layer_1" xmlns="http://www.w3.org/2000/svg" xmlns:xlink="http://www.w3.org/1999/xlink" x="0px" y="0px"
	 viewBox="0 0 115.8 103" style="enable-background:new 0 0 115.8 103;" xml:space="preserve">
<style type="text/css">
	.st0{fill:url(#SVGID_1_);}
	.st1{fill:url(#SVGID_2_);}
</style>
<g>
	<linearGradient id="SVGID_1_" gradientUnits="userSpaceOnUse" x1="-127.3295" y1="28.2649" x2="118.0224" y2="28.2649">
		<stop  offset="0.145" style="stop-color:#1C449B"/>
		<stop  offset="0.3235" style="stop-color:#333E99"/>
		<stop  offset="0.6959" style="stop-color:#6E3093"/>
		<stop  offset="0.9576" style="stop-color:#9B258E"/>
	</linearGradient>
	<path class="st0" d="M44,31.7c0.9,0,1.7-0.1,2.5-0.3v11.1c0,0.6,0.2,1.2,0.7,1.7c0.4,0.4,1,0.7,1.6,0.7l0,0h11
		c-0.2,0.8-0.3,1.6-0.3,2.4c0,5.2,4.2,9.4,9.4,9.4c5.2,0,9.4-4.2,9.4-9.4c0-0.8-0.1-1.6-0.3-2.4h10.9c1.3,0,2.3-1,2.3-2.3V31.3
		c0.8,0.2,1.6,0.3,2.5,0.3c2.5,0,4.9-1,6.6-2.8c1.8-1.8,2.7-4.2,2.7-6.6c0-5.2-4.2-9.4-9.4-9.4c-0.9,0-1.7,0.1-2.5,0.3V2.3
		c0-0.6-0.2-1.2-0.7-1.7c-0.4-0.4-1-0.7-1.6-0.7l0,0L74.1,0c-0.9,0-1.7,0.6-2.1,1.4c-0.4,0.9-0.2,1.8,0.4,2.5c0.8,0.9,1.3,2,1.3,3.2
		c0,2.6-2.1,4.8-4.8,4.8s-4.8-2.1-4.8-4.8c0-1.2,0.5-2.4,1.3-3.2c0.7-0.7,0.8-1.7,0.5-2.5C65.5,0.6,64.7,0,63.7,0H48.8
		c-0.6,0-1.2,0.2-1.7,0.7c-0.4,0.4-0.7,1-0.7,1.7v10.9c-0.8-0.2-1.6-0.3-2.5-0.3c-5.2,0-9.4,4.2-9.4,9.4
		C34.6,27.5,38.8,31.7,44,31.7z M44,17.5c1.5,0,2.6,0.7,3.3,1.3c0.7,0.6,1.7,0.8,2.5,0.4c0.9-0.4,1.4-1.2,1.4-2.1V4.6h8.6
		c-0.2,0.8-0.3,1.7-0.3,2.5c0,5.2,4.2,9.4,9.4,9.4c5.2,0,9.4-4.2,9.4-9.4c0-0.9-0.1-1.7-0.3-2.5h8.6v12.4c0,0.9,0.5,1.7,1.4,2.1
		c0.8,0.4,1.8,0.2,2.5-0.4c0.6-0.6,1.7-1.3,3.3-1.3c2.6,0,4.8,2.1,4.8,4.8c0,1.3-0.5,2.5-1.4,3.4c-0.9,0.9-2.1,1.4-3.4,1.4
		c-1.2,0-2.3-0.4-3.2-1.2c-0.7-0.6-1.7-0.8-2.5-0.4c-0.9,0.4-1.4,1.2-1.4,2.1v12.6H74.2c-0.9,0-1.7,0.5-2.1,1.4
		c-0.4,0.8-0.2,1.8,0.4,2.5c0.8,0.9,1.2,2,1.2,3.2c0,2.6-2.1,4.8-4.8,4.8s-4.8-2.1-4.8-4.8c0-1.2,0.4-2.3,1.2-3.2
		c0.6-0.7,0.8-1.7,0.4-2.5c-0.4-0.8-1.2-1.4-2.1-1.4l0,0H51.1V27.6c0-0.9-0.5-1.7-1.4-2.1c-0.9-0.4-1.8-0.2-2.5,0.4
		c-0.6,0.6-1.7,1.3-3.3,1.3c-2.6,0-4.8-2.1-4.8-4.8C39.2,19.7,41.4,17.5,44,17.5z"/>
	<linearGradient id="SVGID_2_" gradientUnits="userSpaceOnUse" x1="-127.3295" y1="79.2645" x2="118.0224" y2="79.2645">
		<stop  offset="0.145" style="stop-color:#1C449B"/>
		<stop  offset="0.3235" style="stop-color:#333E99"/>
		<stop  offset="0.6959" style="stop-color:#6E3093"/>
		<stop  offset="0.9576" style="stop-color:#9B258E"/>
	</linearGradient>
	<path class="st1" d="M114.1,63c-2.2-2.7-5.8-3.6-9-2.3L75.7,73c-1.2,0.5-1.7,1.8-1.2,3c0.5,1.2,1.8,1.7,3,1.2l29.4-12.3
		c1.3-0.5,2.7-0.2,3.6,0.9c0.6,0.7,0.8,1.6,0.7,2.4c-0.1,0.9-0.6,1.7-1.4,2.1C97,78.8,67.9,95.2,66.5,96c0,0-0.1,0-0.2,0.1l0,0
		c-3.5,2.1-7.5,2.7-12.6,1.8c-0.3,0-6.9-0.9-22.7-2.8l-8.7-1V61.9c1.4-0.1,2.6-0.1,3.1-0.1h0.2c11.1-0.7,21.6,1.4,32.8,3.7
		c1.4,0.3,2.9,0.6,4.3,0.9c1.6,0.3,2.7,1.7,2.7,3.3c0,0.1,0,0.2,0,0.4c-0.1,0.9-0.6,1.6-0.9,1.9c-0.6,0.6-1.5,0.9-2.4,0.9H39.8
		c-1.3,0-2.3,1-2.3,2.3c0,1.3,1,2.3,2.3,2.3h22.4c2.1,0,4.2-0.9,5.6-2.3c1.3-1.3,2-2.9,2.2-4.6c0-0.3,0.1-0.7,0.1-1
		c0-3.8-2.7-7.1-6.4-7.8c-1.4-0.3-2.9-0.6-4.3-0.9c-11-2.2-22.4-4.5-34-3.8h-0.2c-0.5,0-1.7,0.1-3,0.1c-0.2-1-1.1-1.7-2.2-1.7H2.3
		c-1.3,0-2.3,1-2.3,2.3v40c0,1.3,1,2.3,2.3,2.3H20c0.9,0,1.7-0.6,2.1-1.4l8.3,1c9.3,1.1,22,2.7,22.5,2.8c1.7,0.3,3.5,0.5,5.1,0.5
		c3.9,0,7.4-0.9,10.6-2.8c0,0,0,0,0.1,0C69,100,99.2,83,112.3,74.4c1.8-1.2,3.1-3.1,3.4-5.2C116,66.9,115.4,64.7,114.1,63z
		 M17.7,95.5h-13V60.1h13.1L17.7,95.5L17.7,95.5z"/>
</g>
</svg>
