<?xml version="1.0" encoding="utf-8"?>
<!-- Generator: Adobe Illustrator 24.1.3, SVG Export Plug-In . SVG Version: 6.00 Build 0)  -->
<svg version="1.1" id="Layer_1" xmlns="http://www.w3.org/2000/svg" xmlns:xlink="http://www.w3.org/1999/xlink" x="0px" y="0px"
	 viewBox="0 0 107.7 121.5" style="enable-background:new 0 0 107.7 121.5;" xml:space="preserve">
<style type="text/css">
	.st0{fill:url(#SVGID_1_);}
	.st1{fill:url(#SVGID_2_);}
	.st2{fill:url(#SVGID_3_);}
	.st3{fill:url(#SVGID_4_);}
	.st4{fill:url(#SVGID_5_);}
	.st5{fill:url(#SVGID_6_);}
	.st6{fill:url(#SVGID_7_);}
	.st7{fill:url(#SVGID_8_);}
	.st8{fill:url(#SVGID_9_);}
	.st9{fill:url(#SVGID_10_);}
	.st10{fill:url(#SVGID_11_);}
	.st11{fill:url(#SVGID_12_);}
	.st12{fill:url(#SVGID_13_);}
	.st13{fill:url(#SVGID_14_);}
	.st14{fill:url(#SVGID_15_);}
</style>
<g>
	<g>
		<linearGradient id="SVGID_1_" gradientUnits="userSpaceOnUse" x1="76.9095" y1="130.3417" x2="76.9095" y2="49.0275">
			<stop  offset="0" style="stop-color:#EB008B"/>
			<stop  offset="0.1554" style="stop-color:#CC1798"/>
			<stop  offset="0.4958" style="stop-color:#7E50B9"/>
			<stop  offset="0.9934" style="stop-color:#01ACED"/>
			<stop  offset="0.9991" style="stop-color:#00ADEE"/>
		</linearGradient>
		<polygon class="st0" points="95.3,33.3 56.4,11.2 58.5,7.5 97.5,29.5 		"/>
	</g>
	<g>
		<g>
			<linearGradient id="SVGID_2_" gradientUnits="userSpaceOnUse" x1="53.5884" y1="130.3417" x2="53.5884" y2="49.0275">
				<stop  offset="0" style="stop-color:#EB008B"/>
				<stop  offset="0.1554" style="stop-color:#CC1798"/>
				<stop  offset="0.4958" style="stop-color:#7E50B9"/>
				<stop  offset="0.9934" style="stop-color:#01ACED"/>
				<stop  offset="0.9991" style="stop-color:#00ADEE"/>
			</linearGradient>
			<path class="st1" d="M55.4,19.2c-0.8-1.2-2.8-1.2-3.6,0c-1,1.5-25.5,37.8-25.5,52.2c0,15.1,12.3,27.3,27.3,27.3
				c15.1,0,27.3-12.3,27.3-27.3C80.9,57,56.4,20.7,55.4,19.2z M53.6,94.3c-12.6,0-22.9-10.3-22.9-22.9c0-10,15.2-35.2,22.9-47
				c7.8,11.8,22.9,37,22.9,47C76.5,84,66.2,94.3,53.6,94.3z M54.6,87.8c0,1.2-0.9,2.2-2.1,2.2C42.9,90,35,81.6,35,71.4
				c0-1.2,0.9-2.2,2.1-2.2c1.1,0,2.1,1,2.1,2.2c0,7.8,6,14.2,13.4,14.2C53.7,85.6,54.6,86.6,54.6,87.8z"/>
		</g>
	</g>
	<g>
		<linearGradient id="SVGID_3_" gradientUnits="userSpaceOnUse" x1="100.1232" y1="130.3417" x2="100.1232" y2="49.0275">
			<stop  offset="0" style="stop-color:#EB008B"/>
			<stop  offset="0.1554" style="stop-color:#CC1798"/>
			<stop  offset="0.4958" style="stop-color:#7E50B9"/>
			<stop  offset="0.9934" style="stop-color:#01ACED"/>
			<stop  offset="0.9991" style="stop-color:#00ADEE"/>
		</linearGradient>
		<rect x="98" y="38.1" class="st2" width="4.3" height="45.5"/>
	</g>
	<g>
		<linearGradient id="SVGID_4_" gradientUnits="userSpaceOnUse" x1="77.5411" y1="130.3417" x2="77.5411" y2="49.0275">
			<stop  offset="0" style="stop-color:#EB008B"/>
			<stop  offset="0.1554" style="stop-color:#CC1798"/>
			<stop  offset="0.4958" style="stop-color:#7E50B9"/>
			<stop  offset="0.9934" style="stop-color:#01ACED"/>
			<stop  offset="0.9991" style="stop-color:#00ADEE"/>
		</linearGradient>
		<polygon class="st3" points="59.6,114.5 57.4,110.7 95.5,88.5 97.7,92.2 		"/>
	</g>
	<g>
		<linearGradient id="SVGID_5_" gradientUnits="userSpaceOnUse" x1="53.7014" y1="130.3417" x2="53.7014" y2="49.0275">
			<stop  offset="0" style="stop-color:#EB008B"/>
			<stop  offset="0.1554" style="stop-color:#CC1798"/>
			<stop  offset="0.4958" style="stop-color:#7E50B9"/>
			<stop  offset="0.9934" style="stop-color:#01ACED"/>
			<stop  offset="0.9991" style="stop-color:#00ADEE"/>
		</linearGradient>
		<path class="st4" d="M53.7,13.6c-3.8,0-6.8-3.1-6.8-6.8c0-3.8,3.1-6.8,6.8-6.8s6.8,3.1,6.8,6.8C60.5,10.6,57.5,13.6,53.7,13.6z
			 M53.7,4.3c-1.4,0-2.5,1.1-2.5,2.5s1.1,2.5,2.5,2.5s2.5-1.1,2.5-2.5S55.1,4.3,53.7,4.3z"/>
	</g>
	<g>
		<linearGradient id="SVGID_6_" gradientUnits="userSpaceOnUse" x1="100.926" y1="130.3417" x2="100.926" y2="49.0275">
			<stop  offset="0" style="stop-color:#EB008B"/>
			<stop  offset="0.1554" style="stop-color:#CC1798"/>
			<stop  offset="0.4958" style="stop-color:#7E50B9"/>
			<stop  offset="0.9934" style="stop-color:#01ACED"/>
			<stop  offset="0.9991" style="stop-color:#00ADEE"/>
		</linearGradient>
		<path class="st5" d="M100.9,40.8c-3.8,0-6.8-3.1-6.8-6.8c0-3.8,3.1-6.8,6.8-6.8c3.8,0,6.8,3.1,6.8,6.8
			C107.7,37.8,104.7,40.8,100.9,40.8z M100.9,31.5c-1.4,0-2.5,1.1-2.5,2.5c0,1.4,1.1,2.5,2.5,2.5c1.4,0,2.5-1.1,2.5-2.5
			C103.4,32.6,102.3,31.5,100.9,31.5z"/>
	</g>
	<g>
		<linearGradient id="SVGID_7_" gradientUnits="userSpaceOnUse" x1="100.926" y1="130.3417" x2="100.926" y2="49.0275">
			<stop  offset="0" style="stop-color:#EB008B"/>
			<stop  offset="0.1554" style="stop-color:#CC1798"/>
			<stop  offset="0.4958" style="stop-color:#7E50B9"/>
			<stop  offset="0.9934" style="stop-color:#01ACED"/>
			<stop  offset="0.9991" style="stop-color:#00ADEE"/>
		</linearGradient>
		<path class="st6" d="M100.9,95c-3.8,0-6.8-3.1-6.8-6.8c0-3.8,3.1-6.8,6.8-6.8c3.8,0,6.8,3.1,6.8,6.8C107.7,92,104.7,95,100.9,95z
			 M100.9,85.7c-1.4,0-2.5,1.1-2.5,2.5c0,1.4,1.1,2.5,2.5,2.5c1.4,0,2.5-1.1,2.5-2.5C103.4,86.8,102.3,85.7,100.9,85.7z"/>
	</g>
	<g>
		<linearGradient id="SVGID_8_" gradientUnits="userSpaceOnUse" x1="30.8285" y1="130.3417" x2="30.8285" y2="49.0275">
			<stop  offset="0" style="stop-color:#EB008B"/>
			<stop  offset="0.1554" style="stop-color:#CC1798"/>
			<stop  offset="0.4958" style="stop-color:#7E50B9"/>
			<stop  offset="0.9934" style="stop-color:#01ACED"/>
			<stop  offset="0.9991" style="stop-color:#00ADEE"/>
		</linearGradient>
		<polygon class="st7" points="12.4,33.3 10.3,29.5 49.3,7.5 51.4,11.2 		"/>
	</g>
	<g>
		<linearGradient id="SVGID_9_" gradientUnits="userSpaceOnUse" x1="7.6147" y1="130.3417" x2="7.6147" y2="49.0275">
			<stop  offset="0" style="stop-color:#EB008B"/>
			<stop  offset="0.1554" style="stop-color:#CC1798"/>
			<stop  offset="0.4958" style="stop-color:#7E50B9"/>
			<stop  offset="0.9934" style="stop-color:#01ACED"/>
			<stop  offset="0.9991" style="stop-color:#00ADEE"/>
		</linearGradient>
		<rect x="5.5" y="38.1" class="st8" width="4.3" height="45.5"/>
	</g>
	<g>
		<linearGradient id="SVGID_10_" gradientUnits="userSpaceOnUse" x1="30.1968" y1="130.3417" x2="30.1968" y2="49.0275">
			<stop  offset="0" style="stop-color:#EB008B"/>
			<stop  offset="0.1554" style="stop-color:#CC1798"/>
			<stop  offset="0.4958" style="stop-color:#7E50B9"/>
			<stop  offset="0.9934" style="stop-color:#01ACED"/>
			<stop  offset="0.9991" style="stop-color:#00ADEE"/>
		</linearGradient>
		<polygon class="st9" points="48.2,114.5 10.1,92.2 12.2,88.5 50.3,110.7 		"/>
	</g>
	<g>
		<linearGradient id="SVGID_11_" gradientUnits="userSpaceOnUse" x1="6.8119" y1="130.3417" x2="6.8119" y2="49.0275">
			<stop  offset="0" style="stop-color:#EB008B"/>
			<stop  offset="0.1554" style="stop-color:#CC1798"/>
			<stop  offset="0.4958" style="stop-color:#7E50B9"/>
			<stop  offset="0.9934" style="stop-color:#01ACED"/>
			<stop  offset="0.9991" style="stop-color:#00ADEE"/>
		</linearGradient>
		<path class="st10" d="M6.8,40.8C3.1,40.8,0,37.8,0,34c0-3.8,3.1-6.8,6.8-6.8s6.8,3.1,6.8,6.8C13.6,37.8,10.6,40.8,6.8,40.8z
			 M6.8,31.5c-1.4,0-2.5,1.1-2.5,2.5c0,1.4,1.1,2.5,2.5,2.5s2.5-1.1,2.5-2.5C9.3,32.6,8.2,31.5,6.8,31.5z"/>
	</g>
	<g>
		<linearGradient id="SVGID_12_" gradientUnits="userSpaceOnUse" x1="6.8119" y1="130.3417" x2="6.8119" y2="49.0275">
			<stop  offset="0" style="stop-color:#EB008B"/>
			<stop  offset="0.1554" style="stop-color:#CC1798"/>
			<stop  offset="0.4958" style="stop-color:#7E50B9"/>
			<stop  offset="0.9934" style="stop-color:#01ACED"/>
			<stop  offset="0.9991" style="stop-color:#00ADEE"/>
		</linearGradient>
		<path class="st11" d="M6.8,95C3.1,95,0,92,0,88.2c0-3.8,3.1-6.8,6.8-6.8s6.8,3.1,6.8,6.8C13.6,92,10.6,95,6.8,95z M6.8,85.7
			c-1.4,0-2.5,1.1-2.5,2.5c0,1.4,1.1,2.5,2.5,2.5s2.5-1.1,2.5-2.5C9.3,86.8,8.2,85.7,6.8,85.7z"/>
	</g>
	<g>
		<linearGradient id="SVGID_13_" gradientUnits="userSpaceOnUse" x1="54.3019" y1="130.3417" x2="54.3019" y2="49.0275">
			<stop  offset="0" style="stop-color:#EB008B"/>
			<stop  offset="0.1554" style="stop-color:#CC1798"/>
			<stop  offset="0.4958" style="stop-color:#7E50B9"/>
			<stop  offset="0.9934" style="stop-color:#01ACED"/>
			<stop  offset="0.9991" style="stop-color:#00ADEE"/>
		</linearGradient>
		<path class="st12" d="M54.3,121.5c-3.8,0-6.8-3.1-6.8-6.8c0-3.8,3.1-6.8,6.8-6.8s6.8,3.1,6.8,6.8
			C61.1,118.4,58.1,121.5,54.3,121.5z M54.3,112.2c-1.4,0-2.5,1.1-2.5,2.5s1.1,2.5,2.5,2.5s2.5-1.1,2.5-2.5S55.7,112.2,54.3,112.2z"
			/>
	</g>
	<g>
		<linearGradient id="SVGID_14_" gradientUnits="userSpaceOnUse" x1="53.4713" y1="130.3417" x2="53.4713" y2="49.0275">
			<stop  offset="0" style="stop-color:#EB008B"/>
			<stop  offset="0.1554" style="stop-color:#CC1798"/>
			<stop  offset="0.4958" style="stop-color:#7E50B9"/>
			<stop  offset="0.9934" style="stop-color:#01ACED"/>
			<stop  offset="0.9991" style="stop-color:#00ADEE"/>
		</linearGradient>
		<polygon class="st13" points="53.7,63.7 9.2,38 11.4,34.3 53.7,58.7 95.5,34.1 97.7,37.8 		"/>
	</g>
	<g>
		<linearGradient id="SVGID_15_" gradientUnits="userSpaceOnUse" x1="53.7014" y1="130.3417" x2="53.7014" y2="49.0275">
			<stop  offset="0" style="stop-color:#EB008B"/>
			<stop  offset="0.1554" style="stop-color:#CC1798"/>
			<stop  offset="0.4958" style="stop-color:#7E50B9"/>
			<stop  offset="0.9934" style="stop-color:#01ACED"/>
			<stop  offset="0.9991" style="stop-color:#00ADEE"/>
		</linearGradient>
		<rect x="51.5" y="61.2" class="st14" width="4.3" height="48.8"/>
	</g>
</g>
</svg>
