<?xml version="1.0" encoding="utf-8"?>
<!-- Generator: Adobe Illustrator 24.1.3, SVG Export Plug-In . SVG Version: 6.00 Build 0)  -->
<svg version="1.1" id="Layer_1" xmlns="http://www.w3.org/2000/svg" xmlns:xlink="http://www.w3.org/1999/xlink" x="0px" y="0px"
	 viewBox="0 0 118.9 127.8" style="enable-background:new 0 0 118.9 127.8;" xml:space="preserve">
<style type="text/css">
	.st0{fill:url(#SVGID_1_);}
	.st1{fill:url(#SVGID_2_);}
	.st2{fill:url(#SVGID_3_);}
	.st3{fill:url(#SVGID_4_);}
	.st4{fill:url(#SVGID_5_);}
	.st5{fill:url(#SVGID_6_);}
	.st6{fill:url(#SVGID_7_);}
	.st7{fill:url(#SVGID_8_);}
	.st8{fill:url(#SVGID_9_);}
</style>
<g>
	<linearGradient id="SVGID_1_" gradientUnits="userSpaceOnUse" x1="-44.1531" y1="65.0667" x2="188.0787" y2="65.0667">
		<stop  offset="0" style="stop-color:#DA1F32"/>
		<stop  offset="0.9897" style="stop-color:#F6B62D"/>
	</linearGradient>
	<path class="st0" d="M59.5,26.3c-18.3,0-33.2,14.9-33.2,33.2c0,13.2,7.6,24.9,19.6,30.3v14.1h27.3V89.8
		C85,84.4,92.7,72.7,92.7,59.5C92.7,41.2,77.8,26.3,59.5,26.3z M70.3,86.5L69,87v12.7h-7.5V69h10.6c4.8,0,8.6-3.9,8.6-8.6
		s-3.9-8.6-8.6-8.6c-4.8,0-8.6,3.9-8.6,8.6c0,1.7,0.5,3.2,1.3,4.5H54.1c0.8-1.3,1.3-2.9,1.3-4.5c0-4.8-3.9-8.6-8.6-8.6
		s-8.6,3.9-8.6,8.6S42,69,46.8,69h10.6v30.7h-7.5V87l-1.3-0.5c-11.1-4.5-18.3-15.1-18.3-27c0-16,13.1-29.1,29.1-29.1
		s29.1,13.1,29.1,29.1C88.6,71.4,81.4,82,70.3,86.5z M67.6,60.3c0-2.5,2-4.5,4.5-4.5c2.5,0,4.5,2,4.5,4.5s-2,4.5-4.5,4.5
		C69.6,64.9,67.6,62.8,67.6,60.3z M42.3,60.3c0-2.5,2-4.5,4.5-4.5s4.5,2,4.5,4.5s-2,4.5-4.5,4.5S42.3,62.8,42.3,60.3z"/>
	<linearGradient id="SVGID_2_" gradientUnits="userSpaceOnUse" x1="-44.1531" y1="118.1143" x2="188.0787" y2="118.1143">
		<stop  offset="0" style="stop-color:#DA1F32"/>
		<stop  offset="0.9897" style="stop-color:#F6B62D"/>
	</linearGradient>
	<path class="st1" d="M77.6,108.4h-4.3h-28h-3c-1.1,0-2.1,0.9-2.1,2.1c0,1.1,0.9,2.1,2.1,2.1h3v7.6h5.2v7.6h17.7v-7.6h5.2v-7.6h4.3
		c1.1,0,2.1-0.9,2.1-2.1C79.7,109.3,78.8,108.4,77.6,108.4z M64.1,123.7h-9.5v-3.5h9.5V123.7z M69.2,116.1h-1H50.5h-1v-3.5h19.8
		L69.2,116.1L69.2,116.1z"/>
	<linearGradient id="SVGID_3_" gradientUnits="userSpaceOnUse" x1="-44.1531" y1="23.5689" x2="188.0787" y2="23.5689">
		<stop  offset="0" style="stop-color:#DA1F32"/>
		<stop  offset="0.9897" style="stop-color:#F6B62D"/>
	</linearGradient>
	<path class="st2" d="M90.7,30.3c0.5,0,1.1-0.2,1.5-0.6l9.4-9.4c0.8-0.8,0.8-2.1,0-2.9c-0.8-0.8-2.1-0.8-2.9,0l-9.4,9.4
		c-0.8,0.8-0.8,2.1,0,2.9C89.6,30.1,90.1,30.3,90.7,30.3z"/>
	<linearGradient id="SVGID_4_" gradientUnits="userSpaceOnUse" x1="-44.1531" y1="95.3696" x2="188.0787" y2="95.3696">
		<stop  offset="0" style="stop-color:#DA1F32"/>
		<stop  offset="0.9897" style="stop-color:#F6B62D"/>
	</linearGradient>
	<path class="st3" d="M26.8,89.2l-9.4,9.4c-0.8,0.8-0.8,2.1,0,2.9c0.4,0.4,0.9,0.6,1.5,0.6s1.1-0.2,1.5-0.6l9.4-9.4
		c0.8-0.8,0.8-2.1,0-2.9C28.9,88.4,27.6,88.4,26.8,89.2z"/>
	<linearGradient id="SVGID_5_" gradientUnits="userSpaceOnUse" x1="-44.1531" y1="23.5689" x2="188.0787" y2="23.5689">
		<stop  offset="0" style="stop-color:#DA1F32"/>
		<stop  offset="0.9897" style="stop-color:#F6B62D"/>
	</linearGradient>
	<path class="st4" d="M26.8,29.7c0.4,0.4,0.9,0.6,1.5,0.6s1.1-0.2,1.5-0.6c0.8-0.8,0.8-2.1,0-2.9l-9.4-9.4c-0.8-0.8-2.1-0.8-2.9,0
		c-0.8,0.8-0.8,2.1,0,2.9L26.8,29.7z"/>
	<linearGradient id="SVGID_6_" gradientUnits="userSpaceOnUse" x1="-44.1531" y1="95.3671" x2="188.0787" y2="95.3671">
		<stop  offset="0" style="stop-color:#DA1F32"/>
		<stop  offset="0.9897" style="stop-color:#F6B62D"/>
	</linearGradient>
	<path class="st5" d="M92.1,89.2c-0.8-0.8-2.1-0.8-2.9,0c-0.8,0.8-0.8,2.1,0,2.9l9.4,9.4c0.4,0.4,0.9,0.6,1.5,0.6
		c0.5,0,1.1-0.2,1.5-0.6c0.8-0.8,0.8-2.1,0-2.9L92.1,89.2z"/>
	<linearGradient id="SVGID_7_" gradientUnits="userSpaceOnUse" x1="-44.1531" y1="59.4628" x2="188.0787" y2="59.4628">
		<stop  offset="0" style="stop-color:#DA1F32"/>
		<stop  offset="0.9897" style="stop-color:#F6B62D"/>
	</linearGradient>
	<path class="st6" d="M15.3,57.4H2.1c-1.1,0-2.1,0.9-2.1,2.1s0.9,2.1,2.1,2.1h13.3c1.1,0,2.1-0.9,2.1-2.1S16.5,57.4,15.3,57.4z"/>
	<linearGradient id="SVGID_8_" gradientUnits="userSpaceOnUse" x1="-44.1531" y1="59.4628" x2="188.0787" y2="59.4628">
		<stop  offset="0" style="stop-color:#DA1F32"/>
		<stop  offset="0.9897" style="stop-color:#F6B62D"/>
	</linearGradient>
	<path class="st7" d="M116.9,57.4h-13.3c-1.1,0-2.1,0.9-2.1,2.1s0.9,2.1,2.1,2.1h13.3c1.1,0,2.1-0.9,2.1-2.1S118,57.4,116.9,57.4z"
		/>
	<linearGradient id="SVGID_9_" gradientUnits="userSpaceOnUse" x1="-44.1531" y1="8.6911" x2="188.0787" y2="8.6911">
		<stop  offset="0" style="stop-color:#DA1F32"/>
		<stop  offset="0.9897" style="stop-color:#F6B62D"/>
	</linearGradient>
	<path class="st8" d="M59.5,17.4c1.1,0,2.1-0.9,2.1-2.1V2.1c0-1.1-0.9-2.1-2.1-2.1c-1.1,0-2.1,0.9-2.1,2.1v13.3
		C57.4,16.5,58.3,17.4,59.5,17.4z"/>
</g>
</svg>
